<?xml version="1.0" standalone="no"?>
<!DOCTYPE svg PUBLIC "-//W3C//DTD SVG 20010904//EN"
 "http://www.w3.org/TR/2001/REC-SVG-20010904/DTD/svg10.dtd">
<svg version="1.0" xmlns="http://www.w3.org/2000/svg"
 width="695.000000pt" height="695.000000pt" viewBox="0 0 695.000000 695.000000"
 preserveAspectRatio="xMidYMid meet">
<metadata>
Created by potrace 1.11, written by Peter Selinger 2001-2013
</metadata>
<g transform="translate(0.000000,695.000000) scale(0.100000,-0.100000)"
fill="#000000" stroke="none">
<path d="M3389 6923 c-299 -119 -566 -489 -748 -1040 -54 -163 -118 -410 -145
-558 -3 -16 -8 -41 -11 -55 -3 -14 -8 -38 -10 -55 -3 -16 -8 -37 -10 -45 -2
-8 -6 -35 -9 -60 -4 -25 -8 -56 -10 -70 -3 -14 -10 -61 -16 -105 -6 -44 -13
-91 -15 -105 -10 -67 -22 -179 -31 -275 -3 -38 -7 -86 -9 -105 -2 -19 -6 -80
-10 -135 -3 -55 -8 -116 -10 -135 -24 -238 -24 -1184 0 -1550 8 -122 16 -247
20 -285 10 -125 17 -194 22 -225 3 -19 6 -48 8 -65 6 -66 17 -151 39 -295 31
-198 24 -164 60 -335 66 -317 179 -692 261 -872 8 -17 15 -33 15 -36 0 -9 81
-181 152 -321 10 -19 22 -37 28 -41 6 -4 72 -25 148 -47 151 -44 211 -61 260
-77 17 -5 32 -8 32 -5 0 2 12 -2 28 -9 33 -18 35 -17 202 34 74 22 184 55 243
72 l109 31 22 45 c13 25 44 87 70 138 25 51 46 95 46 97 0 3 11 29 24 58 74
164 148 378 212 613 24 87 29 107 38 150 2 11 10 43 16 70 7 28 14 57 15 65 1
8 5 26 8 40 4 14 9 39 12 55 3 17 12 71 21 120 18 98 17 95 34 205 21 143 21
145 35 265 2 22 7 63 9 90 3 28 8 73 10 100 3 28 8 77 10 110 2 33 7 98 10
145 18 247 27 521 27 845 1 329 -7 601 -26 895 -4 52 -8 122 -10 155 -2 33 -6
74 -9 90 -3 17 -8 64 -11 105 -3 41 -8 89 -10 105 -2 17 -7 53 -10 80 -3 28
-7 59 -9 70 -2 11 -7 45 -11 75 -3 30 -9 69 -12 85 -2 17 -6 39 -8 50 -10 75
-17 112 -21 126 -3 10 -6 30 -9 45 -5 41 -39 200 -59 284 -55 226 -169 574
-197 605 -5 5 -9 15 -9 22 0 22 -105 227 -162 316 -130 205 -286 362 -415 418
-18 8 -33 17 -33 21 0 3 -15 10 -32 13 -18 4 -37 10 -43 13 -22 13 -55 9 -116
-15z"/>
</g>
</svg>
